# Blender v2.93.1 OBJ File: ''
# www.blender.org
mtllib pillow_light_green.mtl
o green2
v -2.840754 -0.444170 -2.291829
v -2.840754 -0.443386 -2.304949
v 2.840033 -0.443386 -2.304949
v 2.840033 -0.444170 -2.291829
v -2.840754 -0.440716 -2.317473
v 2.840033 -0.440716 -2.317473
v -2.840754 -0.436319 -2.329248
v 2.840033 -0.436319 -2.329248
v -2.840754 -0.430320 -2.340149
v 2.840033 -0.430320 -2.340149
v -2.840754 -0.422878 -2.350038
v 2.840033 -0.422889 -2.350038
v -2.840754 -0.414141 -2.358747
v 2.840033 -0.414141 -2.358747
v -2.840754 -0.404234 -2.366153
v 2.840033 -0.404234 -2.366153
v -2.840754 -0.393304 -2.372103
v 2.840033 -0.393304 -2.372103
v -2.840754 -0.381499 -2.376458
v 2.840033 -0.381499 -2.376458
v -2.840754 -0.368967 -2.379079
v 2.840033 -0.368967 -2.379079
v -2.840754 -0.355833 -2.379814
v 2.840033 -0.355833 -2.379814
v -2.840754 0.207246 -2.379814
v 2.840033 0.207246 -2.379814
v -2.840754 0.222153 -2.378816
v 2.840033 0.222153 -2.378816
v -2.840754 0.236718 -2.376403
v 2.840033 0.236718 -2.376403
v -2.840754 0.250875 -2.372602
v 2.840033 0.250875 -2.372602
v -2.840754 0.264509 -2.367471
v 2.840033 0.264509 -2.367471
v -2.840754 0.277552 -2.361077
v 2.840033 0.277552 -2.361077
v -2.840754 0.289902 -2.353463
v 2.840033 0.289902 -2.353463
v -2.840754 0.301491 -2.344698
v 2.840033 0.301491 -2.344698
v -2.840754 0.312205 -2.334823
v 2.840033 0.312205 -2.334823
v -2.840754 0.321964 -2.323894
v 2.840033 0.321964 -2.323894
v -2.840754 0.330678 -2.311967
v 2.840033 0.330678 -2.311967
v -2.840754 0.338268 -2.299096
v 2.840033 0.338268 -2.299096
v -2.840754 0.424730 -2.146342
v 2.840033 0.424730 -2.146342
v -2.840754 0.494172 -1.987457
v 2.840033 0.494172 -1.987457
v -2.840754 0.546582 -1.823760
v 2.840033 0.546582 -1.823760
v -2.840754 0.581940 -1.656596
v 2.840033 0.581940 -1.656596
v -2.840754 0.600254 -1.487295
v 2.840033 0.600254 -1.487295
v -2.840754 0.601504 -1.317205
v 2.840033 0.601504 -1.317205
v -2.840754 0.585677 -1.147669
v 2.840033 0.585677 -1.147669
v -2.840754 0.552774 -0.980005
v 2.840033 0.552774 -0.980005
v -2.840754 0.502783 -0.815559
v 2.840033 0.502783 -0.815559
v -2.840754 0.435682 -0.655662
v 2.840033 0.435682 -0.655662
v -2.840754 0.351470 -0.501659
v 2.840033 0.351470 -0.501659
v -2.840754 0.283800 -0.366755
v 2.840033 0.283800 -0.366755
v -2.840754 0.223038 -0.229048
v 2.840033 0.223038 -0.229048
v -2.840754 0.169253 -0.088804
v 2.840033 0.169241 -0.088804
v -2.840754 0.122488 0.053687
v 2.840033 0.122488 0.053687
v -2.840754 0.082814 0.198190
v 2.840033 0.082814 0.198190
v -2.840754 0.050285 0.344412
v 2.840033 0.050285 0.344412
v -2.840754 0.024960 0.492104
v 2.840033 0.024960 0.492104
v -2.840754 0.006907 0.640989
v 2.840033 0.006907 0.640989
v -2.840754 -0.003830 0.790803
v 2.840033 -0.003830 0.790803
v -2.840754 -0.007170 0.941283
v 2.840033 -0.007170 0.941283
v -2.840754 -0.003080 1.092151
v 2.840033 -0.003080 1.092151
v -2.840754 0.003703 1.181509
v 2.840033 0.003703 1.181509
v -2.840754 0.009383 1.270938
v 2.840033 0.009383 1.270938
v -2.840754 0.013951 1.360407
v 2.840033 0.013951 1.360407
v -2.840754 0.017427 1.449932
v 2.840033 0.017427 1.449932
v -2.840754 0.019790 1.539485
v 2.840033 0.019790 1.539485
v -2.840754 0.021052 1.629052
v 2.840033 0.021052 1.629052
v -2.840754 0.021211 1.718632
v 2.840033 0.021211 1.718632
v -2.840754 0.020256 1.808199
v 2.840033 0.020256 1.808199
v -2.840754 0.018200 1.897766
v 2.840033 0.018200 1.897766
v -2.840754 0.015041 1.987319
v 2.840033 0.015041 1.987319
v -2.840754 0.010781 2.076830
v 2.840033 0.010781 2.076830
v -2.840754 0.009883 2.089950
v 2.840033 0.009883 2.089950
v -2.840754 0.007122 2.102460
v 2.840033 0.007122 2.102460
v -2.840754 0.002646 2.114235
v 2.840033 0.002646 2.114235
v -2.840754 -0.003410 2.125122
v 2.840033 -0.003410 2.125122
v -2.840754 -0.010897 2.134983
v 2.840033 -0.010897 2.134983
v -2.840754 -0.019668 2.143693
v 2.840033 -0.019680 2.143693
v -2.840754 -0.029610 2.151085
v 2.840033 -0.029610 2.151085
v -2.840754 -0.040551 2.157035
v 2.840033 -0.040551 2.157035
v -2.840754 -0.052367 2.161404
v 2.840033 -0.052367 2.161404
v -2.840754 -0.064899 2.164039
v 2.840033 -0.064899 2.164039
v -2.840754 -0.078033 2.164816
v 2.840033 -0.078033 2.164816
v -2.840754 -0.355835 2.164816
v 2.840033 -0.355835 2.164816
v -2.840754 -0.368969 2.164080
v 2.840033 -0.368969 2.164080
v -2.840754 -0.381500 2.161473
v 2.840033 -0.381500 2.161473
v -2.840754 -0.393305 2.157118
v 2.840033 -0.393305 2.157118
v -2.840754 -0.404235 2.151168
v 2.840033 -0.404235 2.151168
v -2.840754 -0.414142 2.143762
v 2.840033 -0.414142 2.143762
v -2.840754 -0.422891 2.135052
v 2.840033 -0.422891 2.135052
v -2.840754 -0.430321 2.125178
v 2.840033 -0.430333 2.125178
v -2.840754 -0.436320 2.114263
v 2.840033 -0.436320 2.114263
v -2.840754 -0.440717 2.102488
v 2.840033 -0.440717 2.102488
v -2.840754 -0.443387 2.089950
v 2.840033 -0.443387 2.089950
v -2.840754 -0.444171 2.076830
v 2.840033 -0.444171 2.076830
vt 1.973800 -1.330200
vt 1.982600 -1.330200
vt 1.982600 2.330200
vt 1.973800 2.330200
vt 1.991100 -1.330200
vt 1.991100 2.330200
vt 1.999000 -1.330200
vt 1.999000 2.330200
vt 2.006400 -1.330200
vt 2.006400 2.330200
vt 2.013100 -1.330200
vt 2.013100 2.330200
vt 2.018900 -1.330200
vt 2.018900 2.330200
vt 0.093600 -1.330200
vt 0.101800 -1.330200
vt 0.101800 2.330200
vt 0.093600 2.330200
vt 0.110800 -1.330200
vt 0.110800 2.330200
vt 0.120500 -1.330200
vt 0.120500 2.330200
vt 0.130900 -1.330200
vt 0.130900 2.330200
vt 0.141700 -1.330200
vt 0.141700 2.330200
vt 0.606000 -1.330200
vt 0.606000 2.330200
vt 0.618300 -1.330200
vt 0.618300 2.330200
vt 0.630300 -1.330200
vt 0.630300 2.330200
vt 0.642000 -1.330200
vt 0.642000 2.330200
vt 0.653300 -1.330200
vt 0.653300 2.330200
vt 0.664000 -1.330200
vt 0.664000 2.330200
vt 0.674200 -1.330200
vt 0.674200 2.330200
vt 0.683700 -1.330200
vt 0.683700 2.330200
vt -1.009500 -1.330200
vt -1.002800 -1.330200
vt -1.002800 2.330200
vt -1.009500 2.330200
vt -0.995400 -1.330200
vt -0.995400 2.330200
vt -0.987400 -1.330200
vt -0.987400 2.330200
vt -0.978700 -1.330200
vt -0.978700 2.330200
vt -0.875600 -1.330200
vt -0.875600 2.330200
vt -0.768400 -1.330200
vt -0.768400 2.330200
vt -0.658000 -1.330200
vt -0.658000 2.330200
vt -0.545200 -1.330200
vt -0.545200 2.330200
vt -0.431000 -1.330200
vt -0.431000 2.330200
vt -0.316200 -1.330200
vt -0.316200 2.330200
vt -0.201800 -1.330200
vt -0.201800 2.330200
vt -0.088700 -1.330200
vt -0.088700 2.330200
vt 0.022300 -1.330200
vt 0.022300 2.330200
vt 0.130200 -1.330200
vt 0.130200 2.330200
vt 0.234100 -1.330200
vt 0.234100 2.330200
vt 0.325100 -1.330200
vt 0.325100 2.330200
vt 0.418000 -1.330200
vt 0.418000 2.330200
vt 0.512600 -1.330200
vt 0.512600 2.330200
vt 0.608800 -1.330200
vt 0.608800 2.330200
vt 0.706300 -1.330200
vt 0.706300 2.330200
vt 0.804900 -1.330200
vt 0.804900 2.330200
vt 0.904600 -1.330200
vt 0.904600 2.330200
vt 1.005000 -1.330200
vt 1.005000 2.330200
vt 1.106100 -1.330200
vt 1.106100 2.330200
vt 1.207600 -1.330200
vt 1.207600 2.330200
vt 1.309400 -1.330200
vt 1.309400 2.330200
vt 1.369700 -1.330200
vt 1.369700 2.330200
vt 1.430000 -1.330200
vt 1.430000 2.330200
vt 1.490400 -1.330200
vt 1.490400 2.330200
vt 1.550800 -1.330200
vt 1.550800 2.330200
vt 1.611200 -1.330200
vt 1.611200 2.330200
vt 1.671700 -1.330200
vt 1.671700 2.330200
vt 1.732100 -1.330200
vt 1.732100 2.330200
vt 1.792500 -1.330200
vt 1.792500 2.330200
vt 1.853000 -1.330200
vt 1.853000 2.330200
vt 1.913400 -1.330200
vt 1.913400 2.330200
vt 1.973800 -1.330200
vt 1.973800 2.330200
vt 1.982600 -1.330200
vt 1.982600 2.330200
vt 1.991100 -1.330200
vt 1.991100 2.330200
vt 1.999000 -1.330200
vt 1.999000 2.330200
vt 2.006400 -1.330200
vt 2.006400 2.330200
vt 2.013000 -1.330200
vt 2.013000 2.330200
vt 2.018900 -1.330200
vt 2.018900 2.330200
vt 0.581100 -1.330200
vt 0.589300 -1.330200
vt 0.589300 2.330200
vt 0.581100 2.330200
vt 0.598300 -1.330200
vt 0.598300 2.330200
vt 0.608100 -1.330200
vt 0.608100 2.330200
vt 0.618400 -1.330200
vt 0.618400 2.330200
vt 0.629200 -1.330200
vt 0.629200 2.330200
vt 0.858300 -1.330200
vt 0.858300 2.330200
vt 0.869100 -1.330200
vt 0.869100 2.330200
vt 0.879500 -1.330200
vt 0.879500 2.330200
vt 0.889200 -1.330200
vt 0.889200 2.330200
vt 0.898200 -1.330200
vt 0.898200 2.330200
vt 0.906400 -1.330200
vt 0.906400 2.330200
vt -1.018900 -1.330200
vt -1.013100 -1.330200
vt -1.013100 2.330200
vt -1.018900 2.330200
vt -1.006400 -1.330200
vt -1.006400 2.330200
vt -0.999000 -1.330200
vt -0.999000 2.330200
vt -0.991100 -1.330200
vt -0.991100 2.330200
vt -0.982600 -1.330200
vt -0.982600 2.330200
vt -0.973800 -1.330200
vt -0.973800 2.330200
vt 2.033200 0.141700
vt 2.028000 0.110800
vt 2.030900 0.120500
vt 2.032700 0.130900
vt 2.018900 0.093600
vt 2.023900 0.101800
vt 2.006400 0.080300
vt 2.013100 0.086400
vt 1.991100 0.071700
vt 1.999000 0.075300
vt 1.973800 0.068800
vt 1.982600 0.069500
vt 2.033200 0.370800
vt -0.973800 0.068800
vt 2.032600 0.381600
vt 2.030800 0.391900
vt 2.027900 0.401700
vt 2.023900 0.410700
vt 2.018900 0.418900
vt 2.013000 0.426100
vt 2.006400 0.432300
vt 1.999000 0.437300
vt 1.991100 0.441000
vt 1.982600 0.443300
vt 1.973800 0.444000
vt 1.913400 0.447500
vt 1.853000 0.450100
vt 1.792500 0.451800
vt 1.732100 0.452600
vt 1.671700 0.452500
vt 1.611200 0.451400
vt 1.550800 0.449500
vt 1.490400 0.446600
vt 1.430000 0.442900
vt 1.369700 0.438200
vt 1.309400 0.432600
vt 1.207600 0.429200
vt 1.106100 0.432000
vt 1.005000 0.440800
vt 0.904600 0.455700
vt 0.804900 0.476600
vt 0.706300 0.503400
vt 0.608800 0.536100
vt 0.512600 0.574700
vt 0.418000 0.619100
vt 0.325100 0.669200
vt 0.234100 0.725000
vt 0.130200 0.794400
vt 0.022300 0.849700
vt -0.088700 0.891000
vt -0.201800 0.918100
vt -0.316200 0.931200
vt -0.431000 0.930100
vt -0.545200 0.915000
vt -0.658000 0.885900
vt -0.768400 0.842600
vt -0.875600 0.785400
vt -0.978700 0.714100
vt -0.987400 0.707800
vt -0.995400 0.700600
vt -1.002800 0.692600
vt -1.009500 0.683700
vt -1.015400 0.674200
vt -1.020500 0.664000
vt -1.024800 0.653300
vt -1.028300 0.642000
vt -1.030800 0.630300
vt -1.032500 0.618300
vt -1.033200 0.606000
vt -1.033200 0.141700
vt -1.032700 0.130900
vt -0.982600 0.069500
vt -1.030900 0.120500
vt -0.991100 0.071700
vt -1.027900 0.110800
vt -1.023900 0.101800
vt -1.006400 0.080300
vt -0.999000 0.075300
vt -1.018900 0.093600
vt -1.013100 0.086400
vt -1.033200 0.141700
vt -1.032700 0.130900
vt -1.030900 0.120500
vt -1.028000 0.110800
vt -1.023900 0.101800
vt -1.018900 0.093600
vt -1.013100 0.086400
vt -1.006400 0.080300
vt -0.999000 0.075300
vt -0.991100 0.071700
vt -0.982600 0.069500
vt -0.973800 0.068800
vt 1.973800 0.068800
vt -1.033200 0.370800
vt -1.032600 0.381600
vt -1.030800 0.391900
vt -1.027900 0.401700
vt -1.023900 0.410700
vt -1.018900 0.418900
vt -1.013000 0.426100
vt -1.006400 0.432300
vt -0.999000 0.437300
vt -0.991100 0.441000
vt -0.982600 0.443300
vt -0.973800 0.444000
vt -0.913400 0.447500
vt -0.853000 0.450100
vt -0.792500 0.451800
vt -0.732100 0.452600
vt -0.671700 0.452500
vt -0.611200 0.451400
vt -0.550800 0.449500
vt -0.490400 0.446600
vt -0.430000 0.442900
vt -0.369700 0.438200
vt -0.309400 0.432600
vt -0.207600 0.429200
vt -0.106100 0.432000
vt -0.005000 0.440800
vt 0.095400 0.455700
vt 0.195100 0.476600
vt 0.293700 0.503400
vt 0.391200 0.536100
vt 0.487400 0.574700
vt 0.582000 0.619100
vt 0.674900 0.669200
vt 0.765900 0.725000
vt 0.869800 0.794400
vt 0.977700 0.849700
vt 1.088700 0.891000
vt 1.201800 0.918100
vt 1.316200 0.931200
vt 1.431000 0.930100
vt 1.545200 0.915000
vt 1.658000 0.885900
vt 1.768400 0.842600
vt 1.875600 0.785400
vt 1.978700 0.714100
vt 1.987400 0.707800
vt 1.995400 0.700600
vt 2.002800 0.692600
vt 2.009500 0.683700
vt 2.015400 0.674200
vt 2.020500 0.664000
vt 2.024800 0.653300
vt 2.028300 0.642000
vt 2.030800 0.630300
vt 2.032500 0.618300
vt 2.033200 0.606000
vt 2.033200 0.141700
vt 2.032700 0.130900
vt 1.982600 0.069500
vt 2.030900 0.120500
vt 1.991100 0.071700
vt 2.027900 0.110800
vt 2.023900 0.101800
vt 1.999000 0.075300
vt 2.006400 0.080300
vt 2.013100 0.086400
vt 2.018900 0.093600
vn 0.0000 -0.9982 -0.0597
vn 0.0000 -0.9909 -0.1345
vn 0.0000 -0.9602 -0.2794
vn 0.0000 -0.9089 -0.4171
vn -0.0000 -0.8398 -0.5429
vn -0.0000 -0.7540 -0.6568
vn -0.0000 -0.7542 -0.6567
vn -0.0000 -0.6539 -0.7566
vn 0.0000 -0.5398 -0.8418
vn 0.0000 -0.4132 -0.9106
vn 0.0000 -0.2762 -0.9611
vn 0.0000 -0.1307 -0.9914
vn 0.0000 -0.0559 -0.9984
vn 0.0000 0.0000 -1.0000
vn 0.0000 0.0665 -0.9978
vn 0.0000 0.1153 -0.9933
vn 0.0000 0.2116 -0.9774
vn 0.0000 0.3061 -0.9520
vn 0.0000 0.3967 -0.9180
vn 0.0000 0.4830 -0.8756
vn 0.0000 0.5647 -0.8253
vn 0.0000 0.6412 -0.7673
vn 0.0000 0.7126 -0.7015
vn 0.0000 0.7776 -0.6288
vn 0.0000 0.8354 -0.5496
vn 0.0000 0.8614 -0.5080
vn 0.0000 0.8703 -0.4926
vn 0.0000 0.8945 -0.4471
vn 0.0000 0.9356 -0.3532
vn 0.0000 0.9666 -0.2563
vn 0.0000 0.9875 -0.1574
vn 0.0000 0.9983 -0.0575
vn 0.0000 0.9991 0.0429
vn 0.0000 0.9897 0.1429
vn 0.0000 0.9703 0.2420
vn 0.0000 0.9407 0.3394
vn 0.0000 0.9009 0.4339
vn 0.0000 0.8774 0.4798
vn 0.0000 0.8939 0.4484
vn 0.0000 0.9046 0.4262
vn 0.0000 0.9246 0.3810
vn 0.0000 0.9422 0.3351
vn 0.0000 0.9575 0.2884
vn 0.0000 0.9705 0.2410
vn 0.0000 0.9812 0.1931
vn 0.0000 0.9895 0.1447
vn 0.0000 0.9954 0.0960
vn 0.0000 0.9989 0.0469
vn 0.0000 1.0000 -0.0025
vn 0.0000 0.9996 -0.0271
vn 0.0000 0.9971 -0.0757
vn 0.0000 0.9976 -0.0695
vn 0.0000 0.9984 -0.0572
vn 0.0000 0.9990 -0.0449
vn 0.0000 0.9995 -0.0326
vn 0.0000 0.9998 -0.0202
vn 0.0000 1.0000 -0.0079
vn 0.0000 1.0000 0.0044
vn 0.0000 0.9999 0.0168
vn 0.0000 0.9996 0.0291
vn 0.0000 0.9991 0.0414
vn 0.0000 0.9989 0.0475
vn 0.0000 0.9977 0.0683
vn 0.0000 0.9898 0.1423
vn 0.0000 0.9582 0.2862
vn 0.0000 0.9067 0.4218
vn 0.0000 0.8373 0.5468
vn 0.0000 0.7519 0.6592
vn 0.0000 0.6523 0.7580
vn 0.0000 0.5387 0.8425
vn 0.0000 0.4133 0.9106
vn 0.0000 0.2770 0.9609
vn 0.0000 0.1328 0.9911
vn 0.0000 0.0590 0.9983
vn 0.0000 0.0000 1.0000
vn 0.0000 -0.0559 0.9984
vn 0.0000 -0.1302 0.9915
vn 0.0000 -0.2757 0.9613
vn 0.0000 -0.4132 0.9106
vn 0.0000 -0.5398 0.8418
vn 0.0000 -0.6538 0.7567
vn -0.0000 -0.7541 0.6568
vn -0.0000 -0.8398 0.5428
vn -0.0000 -0.8396 0.5432
vn -0.0000 -0.9091 0.4167
vn 0.0000 -0.9601 0.2798
vn 0.0000 -0.9909 0.1343
vn 0.0000 -0.9982 0.0596
vn 0.0000 -1.0000 -0.0000
vn -1.0000 -0.0000 0.0000
vn -1.0000 0.0019 -0.0000
vn -1.0000 -0.0003 -0.0000
vn -1.0000 0.0005 -0.0000
vn -1.0000 0.0007 0.0000
vn -1.0000 0.0013 0.0000
vn -1.0000 0.0001 0.0000
vn -1.0000 -0.0001 0.0000
vn -1.0000 0.0020 -0.0000
vn -1.0000 0.0023 0.0000
vn -1.0000 0.0033 0.0000
vn -1.0000 0.0034 -0.0000
vn 1.0000 0.0000 0.0000
vn 1.0000 -0.0020 0.0000
vn 1.0000 0.0005 -0.0000
vn 1.0000 -0.0005 -0.0000
vn 1.0000 -0.0007 -0.0000
vn 1.0000 -0.0017 -0.0000
vn 1.0000 -0.0010 -0.0000
vn 1.0000 -0.0008 -0.0000
vn 1.0000 -0.0046 -0.0000
vn 1.0000 -0.0044 0.0000
vn 1.0000 -0.0001 0.0000
vn 1.0000 0.0019 -0.0000
vn 1.0000 0.0007 0.0000
vn 1.0000 -0.0003 -0.0000
vn 1.0000 -0.0011 0.0000
vn 1.0000 -0.0015 0.0000
vn 1.0000 0.0020 0.0000
vn 1.0000 0.0016 -0.0000
vn 1.0000 -0.0034 0.0000
vn 1.0000 -0.0032 0.0000
usemtl 01___Default.004
s 1
f 1/1/1 2/2/2 3/3/2 4/4/1
f 2/2/2 5/5/3 6/6/3 3/3/2
f 5/5/3 7/7/4 8/8/4 6/6/3
f 7/7/4 9/9/5 10/10/5 8/8/4
f 9/9/5 11/11/6 12/12/7 10/10/5
f 11/11/6 13/13/8 14/14/8 12/12/7
f 13/15/8 15/16/9 16/17/9 14/18/8
f 15/16/9 17/19/10 18/20/10 16/17/9
f 17/19/10 19/21/11 20/22/11 18/20/10
f 19/21/11 21/23/12 22/24/12 20/22/11
f 21/23/12 23/25/13 24/26/13 22/24/12
f 23/25/14 25/27/14 26/28/14 24/26/14
f 25/27/15 27/29/16 28/30/16 26/28/15
f 27/29/16 29/31/17 30/32/17 28/30/16
f 29/31/17 31/33/18 32/34/18 30/32/17
f 31/33/18 33/35/19 34/36/19 32/34/18
f 33/35/19 35/37/20 36/38/20 34/36/19
f 35/37/20 37/39/21 38/40/21 36/38/20
f 37/39/21 39/41/22 40/42/22 38/40/21
f 39/43/22 41/44/23 42/45/23 40/46/22
f 41/44/23 43/47/24 44/48/24 42/45/23
f 43/47/24 45/49/25 46/50/25 44/48/24
f 45/49/25 47/51/26 48/52/26 46/50/25
f 47/51/27 49/53/28 50/54/28 48/52/27
f 49/53/28 51/55/29 52/56/29 50/54/28
f 51/55/29 53/57/30 54/58/30 52/56/29
f 53/57/30 55/59/31 56/60/31 54/58/30
f 55/59/31 57/61/32 58/62/32 56/60/31
f 57/61/32 59/63/33 60/64/33 58/62/32
f 59/63/33 61/65/34 62/66/34 60/64/33
f 61/65/34 63/67/35 64/68/35 62/66/34
f 63/67/35 65/69/36 66/70/36 64/68/35
f 65/69/36 67/71/37 68/72/37 66/70/36
f 67/71/37 69/73/38 70/74/38 68/72/37
f 69/73/39 71/75/40 72/76/40 70/74/39
f 71/75/40 73/77/41 74/78/41 72/76/40
f 73/77/41 75/79/42 76/80/42 74/78/41
f 75/79/42 77/81/43 78/82/43 76/80/42
f 77/81/43 79/83/44 80/84/44 78/82/43
f 79/83/44 81/85/45 82/86/45 80/84/44
f 81/85/45 83/87/46 84/88/46 82/86/45
f 83/87/46 85/89/47 86/90/47 84/88/46
f 85/89/47 87/91/48 88/92/48 86/90/47
f 87/91/48 89/93/49 90/94/49 88/92/48
f 89/93/49 91/95/50 92/96/50 90/94/49
f 91/95/51 93/97/52 94/98/52 92/96/51
f 93/97/52 95/99/53 96/100/53 94/98/52
f 95/99/53 97/101/54 98/102/54 96/100/53
f 97/101/54 99/103/55 100/104/55 98/102/54
f 99/103/55 101/105/56 102/106/56 100/104/55
f 101/105/56 103/107/57 104/108/57 102/106/56
f 103/107/57 105/109/58 106/110/58 104/108/57
f 105/109/58 107/111/59 108/112/59 106/110/58
f 107/111/59 109/113/60 110/114/60 108/112/59
f 109/113/60 111/115/61 112/116/61 110/114/60
f 111/115/61 113/117/62 114/118/62 112/116/61
f 113/117/63 115/119/64 116/120/64 114/118/63
f 115/119/64 117/121/65 118/122/65 116/120/64
f 117/121/65 119/123/66 120/124/66 118/122/65
f 119/123/66 121/125/67 122/126/67 120/124/66
f 121/125/67 123/127/68 124/128/68 122/126/67
f 123/127/68 125/129/69 126/130/69 124/128/68
f 125/131/69 127/132/70 128/133/70 126/134/69
f 127/132/70 129/135/71 130/136/71 128/133/70
f 129/135/71 131/137/72 132/138/72 130/136/71
f 131/137/72 133/139/73 134/140/73 132/138/72
f 133/139/73 135/141/74 136/142/74 134/140/73
f 135/141/75 137/143/75 138/144/75 136/142/75
f 137/143/76 139/145/77 140/146/77 138/144/76
f 139/145/77 141/147/78 142/148/78 140/146/77
f 141/147/78 143/149/79 144/150/79 142/148/78
f 143/149/79 145/151/80 146/152/80 144/150/79
f 145/151/80 147/153/81 148/154/81 146/152/80
f 147/155/81 149/156/82 150/157/82 148/158/81
f 149/156/82 151/159/83 152/160/84 150/157/82
f 151/159/83 153/161/85 154/162/85 152/160/84
f 153/161/85 155/163/86 156/164/86 154/162/85
f 155/163/86 157/165/87 158/166/87 156/164/86
f 157/165/87 159/167/88 160/168/88 158/166/87
f 159/167/89 1/1/89 4/4/89 160/168/89
f 137/169/90 143/170/90 141/171/91 139/172/91
f 137/169/90 147/173/90 145/174/90 143/170/90
f 137/169/90 151/175/90 149/176/92 147/173/90
f 137/169/90 155/177/93 153/178/93 151/175/90
f 137/169/90 159/179/90 157/180/93 155/177/93
f 137/169/90 135/181/90 1/182/90 159/179/90
f 133/183/90 131/184/94 1/182/90 135/181/90
f 129/185/91 127/186/95 1/182/90 131/184/94
f 125/187/90 123/188/90 1/182/90 127/186/95
f 121/189/90 119/190/90 1/182/90 123/188/90
f 117/191/96 115/192/96 1/182/90 119/190/90
f 113/193/90 111/194/90 1/182/90 115/192/96
f 109/195/90 107/196/90 1/182/90 111/194/90
f 105/197/90 103/198/90 1/182/90 107/196/90
f 101/199/90 99/200/90 1/182/90 103/198/90
f 97/201/90 95/202/90 1/182/90 99/200/90
f 93/203/97 91/204/90 1/182/90 95/202/90
f 89/205/90 87/206/90 1/182/90 91/204/90
f 85/207/90 83/208/90 1/182/90 87/206/90
f 81/209/90 79/210/90 1/182/90 83/208/90
f 77/211/90 75/212/90 1/182/90 79/210/90
f 73/213/90 71/214/90 1/182/90 75/212/90
f 69/215/90 67/216/90 1/182/90 71/214/90
f 65/217/90 63/218/90 1/182/90 67/216/90
f 61/219/90 59/220/90 1/182/90 63/218/90
f 57/221/90 55/222/90 1/182/90 59/220/90
f 53/223/90 51/224/90 1/182/90 55/222/90
f 49/225/90 47/226/90 1/182/90 51/224/90
f 45/227/90 43/228/90 1/182/90 47/226/90
f 41/229/90 39/230/90 1/182/90 43/228/90
f 37/231/90 35/232/90 1/182/90 39/230/90
f 33/233/90 31/234/90 1/182/90 35/232/90
f 29/235/93 27/236/93 1/182/90 31/234/90
f 25/237/90 23/238/90 1/182/90 27/236/93
f 21/239/93 2/240/93 1/182/90 23/238/90
f 19/241/98 5/242/99 2/240/93 21/239/93
f 17/243/90 15/244/90 5/242/99 19/241/98
f 15/244/90 9/245/100 7/246/101 5/242/99
f 15/244/90 13/247/90 11/248/90 9/245/100
f 138/249/102 140/250/103 142/251/103 144/252/102
f 138/249/102 144/252/102 146/253/102 148/254/104
f 138/249/102 148/254/104 150/255/104 152/256/105
f 138/249/102 152/256/105 154/257/106 156/258/105
f 138/249/102 156/258/105 158/259/105 160/260/102
f 138/249/102 160/260/102 4/261/102 136/262/106
f 134/263/107 136/262/106 4/261/102 132/264/108
f 130/265/102 132/264/108 4/261/102 128/266/102
f 126/267/102 128/266/102 4/261/102 124/268/102
f 122/269/102 124/268/102 4/261/102 120/270/109
f 118/271/110 120/270/109 4/261/102 116/272/111
f 114/273/112 116/272/111 4/261/102 112/274/112
f 110/275/113 112/274/112 4/261/102 108/276/113
f 106/277/102 108/276/113 4/261/102 104/278/102
f 102/279/102 104/278/102 4/261/102 100/280/102
f 98/281/102 100/280/102 4/261/102 96/282/102
f 94/283/102 96/282/102 4/261/102 92/284/102
f 90/285/114 92/284/102 4/261/102 88/286/114
f 86/287/105 88/286/114 4/261/102 84/288/102
f 82/289/104 84/288/102 4/261/102 80/290/104
f 78/291/102 80/290/104 4/261/102 76/292/115
f 74/293/102 76/292/115 4/261/102 72/294/102
f 70/295/102 72/294/102 4/261/102 68/296/102
f 66/297/102 68/296/102 4/261/102 64/298/102
f 62/299/102 64/298/102 4/261/102 60/300/102
f 58/301/102 60/300/102 4/261/102 56/302/102
f 54/303/102 56/302/102 4/261/102 52/304/102
f 50/305/102 52/304/102 4/261/102 48/306/102
f 46/307/102 48/306/102 4/261/102 44/308/102
f 42/309/102 44/308/102 4/261/102 40/310/102
f 38/311/102 40/310/102 4/261/102 36/312/102
f 34/313/102 36/312/102 4/261/102 32/314/102
f 30/315/105 32/314/102 4/261/102 28/316/105
f 26/317/102 28/316/105 4/261/102 24/318/102
f 22/319/108 24/318/102 4/261/102 3/320/116
f 20/321/117 22/319/108 3/320/116 6/322/103
f 18/323/118 20/321/117 6/322/103 16/324/119
f 16/324/119 6/322/103 8/325/120 10/326/121
f 16/324/119 10/326/121 12/327/102 14/328/102
